<?xml version="1.0" encoding="UTF-8" standalone="no"?>
<!DOCTYPE svg PUBLIC "-//W3C//DTD SVG 1.1//EN" "http://www.w3.org/Graphics/SVG/1.1/DTD/svg11.dtd">
<svg width="100%" height="100%" viewBox="0 0 24 24" version="1.1" xmlns="http://www.w3.org/2000/svg" xmlns:xlink="http://www.w3.org/1999/xlink" xml:space="preserve" xmlns:serif="http://www.serif.com/" style="fill-rule:evenodd;clip-rule:evenodd;stroke-linecap:round;stroke-linejoin:round;stroke-miterlimit:1.5;">
    <g transform="matrix(0.192626,0,0,0.173417,-123.281,-29.102)">
        <path d="M764.594,198.296L764.594,252.943C764.594,260.141 759.333,265.984 752.853,265.984L651.741,265.984C645.261,265.984 640,260.141 640,252.943L640,198.296C640,191.098 645.261,185.254 651.741,185.254L752.853,185.254C759.333,185.254 764.594,191.098 764.594,198.296Z" style="fill:url(#_Linear1);"/>
        <path d="M764.594,198.296L764.594,252.943C764.594,260.141 759.333,265.984 752.853,265.984L651.741,265.984C645.261,265.984 640,260.141 640,252.943L640,198.296C640,191.098 645.261,185.254 651.741,185.254L752.853,185.254C759.333,185.254 764.594,191.098 764.594,198.296ZM754.211,198.296C754.211,197.463 753.602,196.787 752.853,196.787L651.741,196.787C650.991,196.787 650.383,197.463 650.383,198.296L650.383,252.943C650.383,253.775 650.991,254.451 651.741,254.451L752.853,254.451C753.602,254.451 754.211,253.775 754.211,252.943L754.211,198.296Z" style="fill:rgb(89,50,15);"/>
    </g>
    <g transform="matrix(0.164725,0,0,0.15788,-90.4353,-70.254)">
        <path d="M646.138,540.146L646.138,577.844L597.572,577.844L597.572,540.146L646.138,540.146ZM633.997,552.814C633.997,552.814 609.714,552.814 609.714,552.814L609.714,565.176C609.714,565.176 633.997,565.176 633.997,565.176L633.997,552.814Z" style="fill:rgb(89,50,15);"/>
    </g>
    <g transform="matrix(0.144769,0,0,0.141643,-100.685,-74.3418)">
        <path d="M736.932,665.943L819.823,665.943" style="fill:none;stroke:rgb(89,50,15);stroke-width:13.97px;"/>
    </g>
    <defs>
        <linearGradient id="_Linear1" x1="0" y1="0" x2="1" y2="0" gradientUnits="userSpaceOnUse" gradientTransform="matrix(5.08611e-15,80.7305,-83.0625,4.94332e-15,702.297,185.254)"><stop offset="0" style="stop-color:rgb(89,50,15);stop-opacity:0.88"/><stop offset="0.5" style="stop-color:rgb(89,50,15);stop-opacity:0"/><stop offset="1" style="stop-color:rgb(89,50,15);stop-opacity:0.88"/></linearGradient>
    </defs>
</svg>
